<mxfile host="drawio-plugin" modified="2021-06-15T08:49:49.715Z" agent="5.0 (Macintosh; Intel Mac OS X 10_15_7) AppleWebKit/537.36 (KHTML, like Gecko) Chrome/87.0.4280.141 Safari/537.36" etag="L5DOVMaqZ8An2bsOHC4h" version="14.6.6" type="embed"><diagram id="p5UUzyhPHsj4HXZsn-TG" name="Page-1"><mxGraphModel dx="1233" dy="480" grid="1" gridSize="10" guides="1" tooltips="1" connect="1" arrows="1" fold="1" page="1" pageScale="1" pageWidth="827" pageHeight="1169" math="0" shadow="0"><root><mxCell id="0"/><mxCell id="1" parent="0"/><mxCell id="9v6svEEhEWFP7TPKSjcC-7" style="orthogonalLoop=1;jettySize=auto;html=1;rounded=0;endArrow=none;endFill=0;" parent="1" target="9v6svEEhEWFP7TPKSjcC-2" edge="1"><mxGeometry relative="1" as="geometry"><mxPoint x="40" y="220" as="sourcePoint"/></mxGeometry></mxCell><mxCell id="9v6svEEhEWFP7TPKSjcC-8" style="edgeStyle=none;rounded=0;orthogonalLoop=1;jettySize=auto;html=1;entryX=0;entryY=0.5;entryDx=0;entryDy=0;endArrow=none;endFill=0;exitX=0.5;exitY=0.5;exitDx=0;exitDy=0;exitPerimeter=0;" parent="1" source="9v6svEEhEWFP7TPKSjcC-1" target="9v6svEEhEWFP7TPKSjcC-3" edge="1"><mxGeometry relative="1" as="geometry"><mxPoint x="60" y="170" as="sourcePoint"/></mxGeometry></mxCell><mxCell id="9v6svEEhEWFP7TPKSjcC-9" style="edgeStyle=none;rounded=0;orthogonalLoop=1;jettySize=auto;html=1;entryX=0;entryY=0.5;entryDx=0;entryDy=0;endArrow=none;endFill=0;exitX=0.5;exitY=0.5;exitDx=0;exitDy=0;exitPerimeter=0;" parent="1" source="9v6svEEhEWFP7TPKSjcC-1" target="9v6svEEhEWFP7TPKSjcC-4" edge="1"><mxGeometry relative="1" as="geometry"/></mxCell><mxCell id="9v6svEEhEWFP7TPKSjcC-1" value="Club Organizer" style="shape=umlActor;verticalLabelPosition=bottom;verticalAlign=top;html=1;outlineConnect=0;" parent="1" vertex="1"><mxGeometry x="20" y="180" width="40" height="80" as="geometry"/></mxCell><mxCell id="9v6svEEhEWFP7TPKSjcC-2" value="Create Department" style="ellipse;whiteSpace=wrap;html=1;" parent="1" vertex="1"><mxGeometry x="150" width="120" height="80" as="geometry"/></mxCell><mxCell id="9v6svEEhEWFP7TPKSjcC-3" value="Read Department" style="ellipse;whiteSpace=wrap;html=1;" parent="1" vertex="1"><mxGeometry x="150" y="90" width="120" height="80" as="geometry"/></mxCell><mxCell id="9v6svEEhEWFP7TPKSjcC-4" value="Update Department" style="ellipse;whiteSpace=wrap;html=1;" parent="1" vertex="1"><mxGeometry x="150" y="180" width="120" height="80" as="geometry"/></mxCell><mxCell id="9v6svEEhEWFP7TPKSjcC-10" style="edgeStyle=none;rounded=0;orthogonalLoop=1;jettySize=auto;html=1;endArrow=none;endFill=0;entryX=0.5;entryY=0.5;entryDx=0;entryDy=0;entryPerimeter=0;" parent="1" source="9v6svEEhEWFP7TPKSjcC-5" target="9v6svEEhEWFP7TPKSjcC-1" edge="1"><mxGeometry relative="1" as="geometry"><mxPoint x="60" y="170" as="targetPoint"/></mxGeometry></mxCell><mxCell id="9v6svEEhEWFP7TPKSjcC-5" value="Delete Department" style="ellipse;whiteSpace=wrap;html=1;" parent="1" vertex="1"><mxGeometry x="150" y="270" width="120" height="80" as="geometry"/></mxCell><mxCell id="9v6svEEhEWFP7TPKSjcC-11" style="edgeStyle=none;rounded=0;orthogonalLoop=1;jettySize=auto;html=1;endArrow=none;endFill=0;entryX=0.5;entryY=0.5;entryDx=0;entryDy=0;entryPerimeter=0;" parent="1" source="9v6svEEhEWFP7TPKSjcC-6" target="9v6svEEhEWFP7TPKSjcC-1" edge="1"><mxGeometry relative="1" as="geometry"><mxPoint x="60" y="170" as="targetPoint"/></mxGeometry></mxCell><mxCell id="9v6svEEhEWFP7TPKSjcC-6" value="List Department" style="ellipse;whiteSpace=wrap;html=1;" parent="1" vertex="1"><mxGeometry x="150" y="360" width="120" height="80" as="geometry"/></mxCell><mxCell id="9v6svEEhEWFP7TPKSjcC-12" style="orthogonalLoop=1;jettySize=auto;html=1;rounded=0;endArrow=none;endFill=0;" parent="1" target="9v6svEEhEWFP7TPKSjcC-16" edge="1"><mxGeometry relative="1" as="geometry"><mxPoint x="597" y="220" as="sourcePoint"/></mxGeometry></mxCell><mxCell id="9v6svEEhEWFP7TPKSjcC-13" style="edgeStyle=none;rounded=0;orthogonalLoop=1;jettySize=auto;html=1;entryX=0;entryY=0.5;entryDx=0;entryDy=0;endArrow=none;endFill=0;exitX=0.5;exitY=0.5;exitDx=0;exitDy=0;exitPerimeter=0;" parent="1" source="9v6svEEhEWFP7TPKSjcC-15" target="9v6svEEhEWFP7TPKSjcC-17" edge="1"><mxGeometry relative="1" as="geometry"><mxPoint x="617" y="170" as="sourcePoint"/></mxGeometry></mxCell><mxCell id="9v6svEEhEWFP7TPKSjcC-14" style="edgeStyle=none;rounded=0;orthogonalLoop=1;jettySize=auto;html=1;entryX=0;entryY=0.5;entryDx=0;entryDy=0;endArrow=none;endFill=0;exitX=0.5;exitY=0.5;exitDx=0;exitDy=0;exitPerimeter=0;" parent="1" source="9v6svEEhEWFP7TPKSjcC-15" target="9v6svEEhEWFP7TPKSjcC-18" edge="1"><mxGeometry relative="1" as="geometry"/></mxCell><mxCell id="9v6svEEhEWFP7TPKSjcC-15" value="Team Organizer" style="shape=umlActor;verticalLabelPosition=bottom;verticalAlign=top;html=1;outlineConnect=0;" parent="1" vertex="1"><mxGeometry x="577" y="180" width="40" height="80" as="geometry"/></mxCell><mxCell id="9v6svEEhEWFP7TPKSjcC-16" value="Create Team" style="ellipse;whiteSpace=wrap;html=1;" parent="1" vertex="1"><mxGeometry x="707" width="120" height="80" as="geometry"/></mxCell><mxCell id="9v6svEEhEWFP7TPKSjcC-17" value="Read Team" style="ellipse;whiteSpace=wrap;html=1;" parent="1" vertex="1"><mxGeometry x="707" y="90" width="120" height="80" as="geometry"/></mxCell><mxCell id="9v6svEEhEWFP7TPKSjcC-18" value="Update Team" style="ellipse;whiteSpace=wrap;html=1;" parent="1" vertex="1"><mxGeometry x="707" y="180" width="120" height="80" as="geometry"/></mxCell><mxCell id="9v6svEEhEWFP7TPKSjcC-19" style="edgeStyle=none;rounded=0;orthogonalLoop=1;jettySize=auto;html=1;endArrow=none;endFill=0;entryX=0.5;entryY=0.5;entryDx=0;entryDy=0;entryPerimeter=0;" parent="1" source="9v6svEEhEWFP7TPKSjcC-20" target="9v6svEEhEWFP7TPKSjcC-15" edge="1"><mxGeometry relative="1" as="geometry"><mxPoint x="617" y="170" as="targetPoint"/></mxGeometry></mxCell><mxCell id="9v6svEEhEWFP7TPKSjcC-20" value="Delete Team" style="ellipse;whiteSpace=wrap;html=1;" parent="1" vertex="1"><mxGeometry x="707" y="270" width="120" height="80" as="geometry"/></mxCell><mxCell id="9v6svEEhEWFP7TPKSjcC-21" style="edgeStyle=none;rounded=0;orthogonalLoop=1;jettySize=auto;html=1;endArrow=none;endFill=0;entryX=0.5;entryY=0.5;entryDx=0;entryDy=0;entryPerimeter=0;" parent="1" source="9v6svEEhEWFP7TPKSjcC-22" target="9v6svEEhEWFP7TPKSjcC-15" edge="1"><mxGeometry relative="1" as="geometry"><mxPoint x="617" y="170" as="targetPoint"/></mxGeometry></mxCell><mxCell id="9v6svEEhEWFP7TPKSjcC-22" value="List Team" style="ellipse;whiteSpace=wrap;html=1;" parent="1" vertex="1"><mxGeometry x="707" y="360" width="120" height="80" as="geometry"/></mxCell><mxCell id="9v6svEEhEWFP7TPKSjcC-23" value="Team Member" style="shape=umlActor;verticalLabelPosition=bottom;verticalAlign=top;html=1;outlineConnect=0;" parent="1" vertex="1"><mxGeometry x="20" y="600" width="40" height="80" as="geometry"/></mxCell><mxCell id="9v6svEEhEWFP7TPKSjcC-25" style="edgeStyle=none;rounded=0;orthogonalLoop=1;jettySize=auto;html=1;entryX=0.5;entryY=0.5;entryDx=0;entryDy=0;entryPerimeter=0;endArrow=none;endFill=0;" parent="1" source="9v6svEEhEWFP7TPKSjcC-24" target="9v6svEEhEWFP7TPKSjcC-23" edge="1"><mxGeometry relative="1" as="geometry"/></mxCell><mxCell id="9v6svEEhEWFP7TPKSjcC-24" value="Read Team" style="ellipse;whiteSpace=wrap;html=1;" parent="1" vertex="1"><mxGeometry x="150" y="555" width="120" height="80" as="geometry"/></mxCell><mxCell id="9v6svEEhEWFP7TPKSjcC-26" value="Club Member" style="shape=umlActor;verticalLabelPosition=bottom;verticalAlign=top;html=1;outlineConnect=0;" parent="1" vertex="1"><mxGeometry x="577" y="595" width="40" height="80" as="geometry"/></mxCell><mxCell id="9v6svEEhEWFP7TPKSjcC-30" style="edgeStyle=none;rounded=0;orthogonalLoop=1;jettySize=auto;html=1;entryX=0.5;entryY=0.5;entryDx=0;entryDy=0;entryPerimeter=0;endArrow=none;endFill=0;" parent="1" source="9v6svEEhEWFP7TPKSjcC-29" target="9v6svEEhEWFP7TPKSjcC-26" edge="1"><mxGeometry relative="1" as="geometry"/></mxCell><mxCell id="9v6svEEhEWFP7TPKSjcC-29" value="List Department" style="ellipse;whiteSpace=wrap;html=1;" parent="1" vertex="1"><mxGeometry x="707" y="505" width="120" height="80" as="geometry"/></mxCell><mxCell id="9v6svEEhEWFP7TPKSjcC-32" style="edgeStyle=none;rounded=0;orthogonalLoop=1;jettySize=auto;html=1;entryX=0.5;entryY=0.5;entryDx=0;entryDy=0;entryPerimeter=0;endArrow=none;endFill=0;" parent="1" source="9v6svEEhEWFP7TPKSjcC-31" target="9v6svEEhEWFP7TPKSjcC-26" edge="1"><mxGeometry relative="1" as="geometry"/></mxCell><mxCell id="9v6svEEhEWFP7TPKSjcC-31" value="Donate Money" style="ellipse;whiteSpace=wrap;html=1;" parent="1" vertex="1"><mxGeometry x="707" y="690" width="120" height="80" as="geometry"/></mxCell><mxCell id="3" style="rounded=0;orthogonalLoop=1;jettySize=auto;html=1;entryX=0.5;entryY=0.5;entryDx=0;entryDy=0;entryPerimeter=0;endArrow=none;endFill=0;" edge="1" parent="1" source="2" target="9v6svEEhEWFP7TPKSjcC-26"><mxGeometry relative="1" as="geometry"/></mxCell><mxCell id="2" value="List Team" style="ellipse;whiteSpace=wrap;html=1;" vertex="1" parent="1"><mxGeometry x="707" y="595" width="120" height="80" as="geometry"/></mxCell><mxCell id="5" style="edgeStyle=none;rounded=0;orthogonalLoop=1;jettySize=auto;html=1;entryX=0.5;entryY=0.5;entryDx=0;entryDy=0;entryPerimeter=0;endArrow=none;endFill=0;" edge="1" parent="1" source="4" target="9v6svEEhEWFP7TPKSjcC-23"><mxGeometry relative="1" as="geometry"/></mxCell><mxCell id="4" value="Donate Money" style="ellipse;whiteSpace=wrap;html=1;" vertex="1" parent="1"><mxGeometry x="150" y="645" width="120" height="80" as="geometry"/></mxCell></root></mxGraphModel></diagram></mxfile>